<svg xmlns="http://www.w3.org/2000/svg" version="1.0" width="512.000000pt" height="512.000000pt" viewBox="0 0 512.000000 512.000000" preserveAspectRatio="xMidYMid meet">

<g transform="translate(0.000000,512.000000) scale(0.100000,-0.100000)" fill="#ab426d" stroke="none">
<path d="M1335 4789 c-188 -25 -392 -92 -550 -180 -130 -72 -215 -138 -346 -268 -215 -216 -345 -458 -411 -765 -31 -146 -31 -436 0 -582 65 -301 193 -542 407 -763 60 -62 497 -497 970 -966 823 -815 863 -853 936 -889 146 -72 292 -72 438 0 73 36 113 74 936 889 473 469 910 904 971 967 216 223 350 479 410 783 25 125 25 415 0 540 -61 310 -197 567 -415 786 -131 131 -214 195 -346 268 -542 300 -1213 241 -1710 -149 l-65 -51 -106 79 c-184 139 -403 237 -632 283 -114 23 -380 33 -487 18z m375 -323 c263 -40 462 -143 713 -370 70 -64 132 -116 137 -116 5 0 62 48 127 106 185 167 281 234 420 293 576 246 1229 27 1537 -514 169 -295 197 -666 77 -996 -38 -103 -102 -218 -176 -314 -68 -89 -1883 -1886 -1922 -1902 -36 -15 -90 -15 -126 0 -38 16 -1855 1813 -1922 1902 -167 218 -248 456 -248 730 0 275 81 512 249 732 174 227 457 398 734 443 41 6 82 13 90 15 44 8 227 3 310 -9z" fill="#ab426d"/>
<path d="M1335 3984 c-256 -55 -466 -267 -519 -526 -24 -114 -21 -164 9 -193 54 -55 135 -15 135 67 1 264 244 507 508 508 54 0 92 34 92 80 0 19 -9 40 -25 55 -29 30 -88 32 -200 9z" fill="#ab426d"/>
</g>
</svg>