<svg xmlns="http://www.w3.org/2000/svg" version="1.0" width="481.000000pt" height="519.000000pt" viewBox="0 0 481.000000 519.000000" preserveAspectRatio="xMidYMid meet">

<g transform="translate(0.000000,519.000000) scale(0.100000,-0.100000)" fill="#ab426d" stroke="none">
<path d="M2000 4011 c-60 -12 -157 -71 -210 -127 -68 -71 -100 -145 -155 -349 -69 -259 -70 -305 -5 -305 38 0 58 27 70 92 22 120 92 353 122 410 35 67 91 120 158 152 43 20 58 21 425 21 367 0 382 -1 425 -21 67 -32 123 -85 158 -152 30 -57 100 -290 122 -410 12 -65 32 -92 70 -92 42 0 54 22 46 83 -9 82 -94 386 -126 455 -39 84 -114 161 -203 209 l-72 38 -395 2 c-217 1 -411 -2 -430 -6z" fill="#ab426d"/>
<path d="M1025 3151 c-58 -14 -107 -63 -131 -129 -20 -55 -17 -93 11 -149 32 -63 50 -80 111 -101 46 -17 49 -20 57 -62 4 -25 34 -173 67 -330 32 -157 73 -356 90 -443 45 -225 53 -248 108 -305 85 -87 19 -82 1067 -82 1048 0 982 -5 1067 82 55 57 63 80 108 305 17 87 58 284 90 438 32 154 62 303 65 331 7 49 8 51 49 62 23 6 54 20 68 31 34 27 78 116 78 155 -1 68 -46 146 -105 182 -29 18 -83 19 -1400 21 -753 0 -1383 -2 -1400 -6z m2759 -132 c20 -15 26 -29 26 -57 0 -20 -4 -42 -8 -48 -17 -24 -59 -44 -94 -44 -51 0 -61 -19 -88 -160 -12 -63 -46 -232 -75 -375 -30 -143 -65 -318 -79 -390 -15 -71 -31 -148 -37 -170 -15 -52 -66 -100 -116 -108 -50 -9 -1766 -9 -1816 0 -50 8 -101 56 -116 108 -6 22 -22 99 -37 170 -14 72 -49 247 -79 390 -29 143 -63 312 -75 375 -27 141 -37 160 -88 160 -35 0 -77 20 -94 44 -4 6 -8 28 -8 48 0 28 6 42 26 57 l27 21 1352 0 1352 0 27 -21z" fill="#ab426d"/>
<path d="M1367 2852 c-22 -24 -21 -55 1 -75 17 -16 103 -17 1039 -17 975 0 1021 1 1036 18 22 24 21 55 -1 75 -17 16 -103 17 -1039 17 -975 0 -1021 -1 -1036 -18z" fill="#ab426d"/>
<path d="M1936 2532 c-15 -17 -16 -51 -14 -328 l3 -308 26 -15 c24 -13 29 -13 53 2 l26 17 0 310 c0 308 0 309 -22 324 -30 21 -51 20 -72 -2z" fill="#ab426d"/>
<path d="M2384 2536 c-18 -14 -19 -31 -22 -315 l-3 -301 25 -25 c30 -30 50 -31 76 -5 19 19 20 33 20 318 0 253 -2 301 -16 320 -17 25 -51 29 -80 8z" fill="#ab426d"/>
<path d="M2838 2539 c-17 -9 -18 -35 -18 -323 0 -290 1 -314 18 -329 25 -22 48 -21 72 3 19 19 20 33 20 324 0 304 0 305 -22 320 -26 18 -46 20 -70 5z" fill="#ab426d"/>
</g>
</svg>