<?xml version="1.0" encoding="UTF-8"?>
<svg id="Layer_1" data-name="Layer 1" xmlns="http://www.w3.org/2000/svg" viewBox="0 0 490.7 266.23">
  <defs>
    <style>
      .cls-1 {
        letter-spacing: .06em;
      }

      .cls-2 {
        fill: #ec9122;
      }

      .cls-2, .cls-3 {
        font-family: AuroraBT-BoldCondensed, 'Aurora BdCn BT';
        font-size: 112.68px;
        font-weight: 700;
      }

      .cls-3 {
        fill: #fff;
        stroke: #fff;
        stroke-linecap: round;
        stroke-miterlimit: 10;
        stroke-width: 12px;
      }

      .cls-4 {
        fill: #ab426d;
      }
    </style>
  </defs>
  <path class="cls-4" d="m270.84,225.24c.11.09.21.17.32.26v-.45c-.11.06-.21.12-.32.18Z"/>
  <path class="cls-4" d="m323.88,137.59c22.69-23.19,48.27-17.7,75.69-7.33-3.21-2.76-5.18-4.45-7.49-6.43,12.05-7.74,24.44-9.01,37.52-5,6.67,2.04,11.02-2.08,10.07-9.23-1.86-14.06-3.22-28.19-5.22-42.23-1.17-8.18-2.44-16.48-5.06-24.27-2.19-6.53-6.31-7.55-12.79-5.32-2.85.98-5.68,2.02-8.47,3.14-5.89,2.36-11.23,2.78-15.2-3.48-1.13-1.77-3-3.06-4.21-4.79-.84-1.2-1.76-2.88-1.56-4.19,3.2-21.87-1.42-18.16,19.23-26.91.49-.21,1.02-.34,1.47-.6,2.93-1.72,5.29-.99,7.52,1.41,1.39,1.5,3.12,2.69,5.28,4.52-.25-1.74-.38-2.61-.62-4.24,7.57,3.26,14.57,6.19,21.49,9.29,6.02,2.7,8.81,7.8,10.33,13.99.91,3.73,2.04,7.58,3.95,10.86,6.95,11.96,14.3,23.68,21.43,35.54,6.57,10.93,10.56,22.79,12.6,35.34,2.02,12.43,1.12,14.16-10.09,19.17-.82.37-1.59.86-2.38,1.29.09.19.18.39.27.58,1.46-.23,2.91-.47,4.91-.79-4.71,9.62-9.05,18.71-13.6,27.68-1.35,2.65-2.93,5.38-5.03,7.43-17.02,16.57-38.54,22.95-61.67,27.34v-13.83c-2.61,3.9-4.96,7.94-6,12.3-1.98,8.31-7.21,13.76-14.22,17.67-6.23,3.47-37.29,9.76-43.8,12.93"/>
  <path class="cls-4" d="m147.95,219.44c-6.51-3.17-33.08-9.45-39.3-12.93-7.01-3.91-12.24-9.37-14.22-17.67-1.04-4.36-3.39-8.4-6-12.3,0,4.38,0,8.76,0,13.83-23.13-4.39-44.65-10.77-61.67-27.34-2.1-2.05-3.68-4.78-5.03-7.43-4.56-8.98-8.9-18.06-13.6-27.68,2,.32,3.46.56,4.91.79.09-.19.18-.39.27-.58-.79-.43-1.56-.93-2.38-1.29C-.27,121.82-1.16,120.09.85,107.66c2.04-12.56,6.03-24.42,12.6-35.34,7.13-11.86,14.49-23.58,21.43-35.54,1.91-3.28,3.03-7.13,3.95-10.86,1.52-6.19,4.31-11.29,10.33-13.99,6.92-3.11,13.91-6.03,21.49-9.29-.24,1.63-.36,2.51-.62,4.24,2.17-1.83,3.89-3.02,5.28-4.52,2.23-2.4,4.59-3.13,7.52-1.41.45.27.99.39,1.47.6,20.65,8.75,16.02,5.04,19.23,26.91.19,1.31-.73,2.99-1.56,4.19-1.21,1.73-3.08,3.02-4.21,4.79-3.98,6.26-9.31,5.84-15.2,3.48-2.79-1.12-5.63-2.16-8.47-3.14-6.48-2.23-10.59-1.21-12.79,5.32-2.61,7.78-3.89,16.09-5.06,24.27-2.01,14.04-3.37,28.17-5.22,42.23-.94,7.15,3.4,11.28,10.07,9.23,13.08-4.01,25.47-2.74,37.52,5-2.31,1.99-4.28,3.67-7.49,6.43,27.42-10.38,53-15.87,75.69,7.33"/>
  <g>
    <text class="cls-3" transform="translate(94.03 144.31) scale(1.41 1)"><tspan x="0" y="0">HONY </tspan><tspan class="cls-1"><tspan x="33.18" y="89.35">HUT</tspan></tspan></text>
    <text class="cls-2" transform="translate(94.03 144.31) scale(1.41 1)"><tspan x="0" y="0">HONY </tspan><tspan class="cls-1"><tspan x="33.18" y="89.35">HUT</tspan></tspan></text>
  </g>
</svg>